NotoSerif-Italic.ufo
<glyph name="plusminus" format="2">
  <advance width="559"/>
  <unicode hex="00B1"/>
  <outline>
    <contour>
      <point x="65" y="0" type="line"/>
      <point x="494" y="0" type="line"/>
      <point x="494" y="59" type="line"/>
      <point x="65" y="59" type="line"/>
    </contour>
    <component base="plus"/>
  </outline>
</glyph>
<glyph name="Lslash" format="2">
  <advance width="623"/>
  <unicode hex="0141"/>
  <anchor x="255" y="0" name="bottom"/>
  <anchor x="407" y="714" name="top"/>
  <anchor x="350" y="357" name="center"/>
  <anchor x="698" y="714" name="topright"/>
  <outline>
    <contour>
      <point x="26" y="229" type="line"/>
      <point x="134" y="284" type="line"/>
      <point x="247" y="341" type="line"/>
      <point x="421" y="431" type="line"/>
      <point x="433" y="489" type="line"/>
      <point x="259" y="398" type="line"/>
      <point x="146" y="340" type="line"/>
      <point x="38" y="285" type="line"/>
    </contour>
    <component base="L"/>
  </outline>
</glyph>
<glyph name="lslash" format="2">
  <advance width="324"/>
  <unicode hex="0142"/>
  <anchor x="105" y="0" name="bottom"/>
  <anchor x="267" y="760" name="top"/>
  <anchor x="209" y="268" name="center"/>
  <anchor x="389" y="760" name="topright"/>
  <outline>
    <contour>
      <point x="8" y="229" type="line"/>
      <point x="102" y="276" type="line"/>
      <point x="207" y="330" type="line"/>
      <point x="314" y="384" type="line"/>
      <point x="326" y="442" type="line"/>
      <point x="219" y="387" type="line"/>
      <point x="114" y="334" type="line"/>
      <point x="20" y="285" type="line"/>
    </contour>
    <component base="l"/>
  </outline>
</glyph>
<glyph name="tbar" format="2">
  <advance width="368"/>
  <unicode hex="0167"/>
  <anchor x="127" y="0" name="bottom"/>
  <anchor x="267" y="659" name="top"/>
  <anchor x="241" y="268" name="center"/>
  <anchor x="405" y="536" name="topright"/>
  <outline>
    <contour>
      <point x="37" y="291" type="line"/>
      <point x="105" y="291" type="line"/>
      <point x="199" y="291" type="line"/>
      <point x="320" y="291" type="line"/>
      <point x="329" y="338" type="line"/>
      <point x="209" y="338" type="line"/>
      <point x="115" y="338" type="line"/>
      <point x="46" y="338" type="line"/>
    </contour>
    <component base="t"/>
  </outline>
</glyph>
<glyph name="uni01B6" format="2">
  <advance width="511"/>
  <unicode hex="01B6"/>
  <anchor x="199" y="0" name="bottom"/>
  <anchor x="313" y="536" name="top"/>
  <anchor x="548" y="536" name="topright"/>
  <outline>
    <contour>
      <point x="68" y="251" type="line"/>
      <point x="170" y="251" type="line"/>
      <point x="274" y="251" type="line"/>
      <point x="402" y="251" type="line"/>
      <point x="412" y="297" type="line"/>
      <point x="310" y="297" type="line"/>
      <point x="206" y="297" type="line"/>
      <point x="78" y="297" type="line"/>
    </contour>
    <component base="z"/>
  </outline>
</glyph>
<glyph name="uni023C" format="2">
  <advance width="487"/>
  <unicode hex="023C"/>
  <anchor x="163" y="-207" name="bottom"/>
  <anchor x="359" y="714" name="top"/>
  <anchor x="524" y="536" name="topright"/>
  <outline>
    <contour>
      <point x="158" y="-207" type="line"/>
      <point x="208" y="-207" type="line"/>
      <point x="404" y="714" type="line"/>
      <point x="354" y="714" type="line"/>
    </contour>
    <component base="c"/>
  </outline>
</glyph>
<glyph name="uni0248" format="2">
  <advance width="357"/>
  <unicode hex="0248"/>
  <anchor x="71" y="-240" name="bottom"/>
  <anchor x="274" y="714" name="top"/>
  <anchor x="432" y="714" name="topright"/>
  <outline>
    <contour>
      <point x="42" y="349" type="line"/>
      <point x="343" y="349" type="line"/>
      <point x="354" y="398" type="line"/>
      <point x="53" y="398" type="line"/>
    </contour>
    <component base="J"/>
  </outline>
</glyph>
<glyph name="uni02FD" format="2">
  <advance width="561"/>
  <unicode hex="02FD"/>
  <outline>
    <contour>
      <point x="-26" y="-208" type="line"/>
      <point x="420" y="-208" type="line"/>
      <point x="420" y="-43" type="line"/>
      <point x="371" y="-43" type="line"/>
      <point x="371" y="-142" type="line"/>
      <point x="22" y="-142" type="line"/>
      <point x="22" y="-43" type="line"/>
      <point x="-26" y="-43" type="line"/>
    </contour>
  </outline>
</glyph>
<glyph name="afii10091" format="2">
  <advance width="901"/>
  <unicode hex="0449"/>
  <anchor x="394" y="0" name="bottom"/>
  <anchor x="508" y="536" name="top"/>
  <outline>
    <contour>
      <point x="710" y="-228" type="curve" smooth="yes"/>
      <point x="807" y="-228"/>
      <point x="839" y="-168"/>
      <point x="876" y="46" type="curve"/>
      <point x="858" y="75" type="line"/>
      <point x="820" y="10" type="line"/>
      <point x="799" y="-112"/>
      <point x="724" y="-179"/>
      <point x="675" y="-179" type="curve" smooth="yes"/>
      <point x="663" y="-179"/>
      <point x="645" y="-177"/>
      <point x="635" y="-174" type="curve"/>
      <point x="624" y="-213" type="line"/>
      <point x="641" y="-220"/>
      <point x="673" y="-228"/>
    </contour>
    <component base="afii10090"/>
  </outline>
</glyph>
<glyph name="uni04B9" format="2">
  <advance width="609"/>
  <unicode hex="04B9"/>
  <anchor x="248" y="0" name="bottom"/>
  <anchor x="362" y="536" name="top"/>
  <outline>
    <contour>
      <point x="223" y="89" type="line"/>
      <point x="278" y="89" type="line"/>
      <point x="337" y="363" type="line"/>
      <point x="282" y="363" type="line"/>
    </contour>
    <component base="afii10089"/>
  </outline>
</glyph>
<glyph name="uni04FF" format="2">
  <advance width="546"/>
  <unicode hex="04FF"/>
  <anchor x="216" y="0" name="bottom"/>
  <anchor x="330" y="536" name="top"/>
  <anchor x="583" y="536" name="topright"/>
  <outline>
    <contour>
      <point x="63" y="270" type="line"/>
      <point x="500" y="270" type="line"/>
      <point x="510" y="317" type="line"/>
      <point x="73" y="317" type="line"/>
    </contour>
    <component base="x"/>
  </outline>
</glyph>
<glyph name="uni1D03" format="2">
  <advance width="531"/>
  <unicode hex="1D03"/>
  <anchor x="201" y="0" name="bottom"/>
  <anchor x="315" y="536" name="top"/>
  <outline>
    <contour>
      <point x="32" y="258" type="line"/>
      <point x="512" y="258" type="line"/>
      <point x="519" y="300" type="line"/>
      <point x="41" y="300" type="line"/>
    </contour>
    <component base="uni0299"/>
  </outline>
</glyph>
<glyph name="uni1D2F" format="2">
  <advance width="425"/>
  <unicode hex="1D2F"/>
  <anchor x="228.5" y="287.0" name="bottom"/>
  <anchor x="327.3" y="715.4" name="top"/>
  <anchor x="526.85" y="715.4" name="topright"/>
  <outline>
    <contour>
      <point x="84" y="496" type="line"/>
      <point x="464" y="496" type="line"/>
      <point x="472" y="526" type="line"/>
      <point x="91" y="526" type="line"/>
    </contour>
    <component base="B" xScale="0.65" yScale="0.6" xOffset="53" yOffset="287"/>
  </outline>
</glyph>
<glyph name="uni1FCD" format="2">
  <advance width="250"/>
  <unicode hex="1FCD"/>
  <anchor x="151" y="536" name="_top"/>
  <anchor x="175" y="724" name="top"/>
  <outline>
    <contour>
      <point x="22" y="547" type="line"/>
      <point x="121" y="555"/>
      <point x="168" y="599"/>
      <point x="168" y="664" type="curve" smooth="yes"/>
      <point x="168" y="705"/>
      <point x="139" y="724"/>
      <point x="105" y="724" type="curve" smooth="yes"/>
      <point x="78" y="724"/>
      <point x="55" y="710"/>
      <point x="55" y="683" type="curve" smooth="yes"/>
      <point x="55" y="640"/>
      <point x="107" y="641"/>
      <point x="107" y="626" type="curve" smooth="yes"/>
      <point x="107" y="601"/>
      <point x="79" y="587"/>
      <point x="25" y="580" type="curve"/>
    </contour>
    <contour>
      <point x="282" y="560" type="curve"/>
      <point x="320" y="560" type="line"/>
      <point x="323" y="573" type="line"/>
      <point x="308" y="607"/>
      <point x="294" y="683"/>
      <point x="291" y="714" type="curve"/>
      <point x="196" y="714" type="line"/>
      <point x="193" y="704" type="line"/>
      <point x="210" y="666"/>
      <point x="244" y="604"/>
    </contour>
  </outline>
</glyph>
<glyph name="parenleftinferior" format="2">
  <advance width="250"/>
  <unicode hex="208D"/>
  <outline>
    <contour>
      <point x="136" y="-289" type="curve"/>
      <point x="146" y="-245" type="line"/>
      <point x="94" y="-205"/>
      <point x="76" y="-113"/>
      <point x="76" y="-57" type="curve" smooth="yes"/>
      <point x="76" y="86"/>
      <point x="126" y="192"/>
      <point x="253" y="261" type="curve" smooth="yes"/>
      <point x="262" y="303" type="line"/>
      <point x="84" y="269"/>
      <point x="-11" y="136"/>
      <point x="-11" y="-60" type="curve" smooth="yes"/>
      <point x="-11" y="-159"/>
      <point x="35" y="-250"/>
    </contour>
  </outline>
</glyph>
<glyph name="planckconstantovertwopi" format="2">
  <advance width="599"/>
  <unicode hex="210F"/>
  <anchor x="243" y="0" name="bottom"/>
  <anchor x="357" y="268" name="center"/>
  <anchor x="405" y="760" name="top"/>
  <anchor x="684" y="760" name="topright"/>
  <outline>
    <contour>
      <point x="54" y="475" type="line"/>
      <point x="360" y="630" type="line"/>
      <point x="372" y="688" type="line"/>
      <point x="66" y="531" type="line"/>
    </contour>
    <component base="h"/>
  </outline>
</glyph>
<glyph name="response" format="2">
  <advance width="664"/>
  <unicode hex="211F"/>
  <anchor x="275" y="0" name="bottom"/>
  <anchor x="427" y="714" name="top"/>
  <anchor x="739" y="714" name="topright"/>
  <outline>
    <contour>
      <point x="89" y="-121" type="line"/>
      <point x="147" y="-121" type="line"/>
      <point x="555" y="797" type="line"/>
      <point x="341" y="874" type="line"/>
      <point x="322" y="828" type="line"/>
      <point x="488" y="770" type="line"/>
    </contour>
    <component base="R"/>
  </outline>
</glyph>
<glyph name="uniA749" format="2">
  <advance width="304"/>
  <unicode hex="A749"/>
  <anchor x="95" y="0" name="bottom"/>
  <anchor x="209" y="268" name="center"/>
  <anchor x="257" y="760" name="top"/>
  <anchor x="389" y="760" name="topright"/>
  <outline>
    <contour>
      <point x="75" y="593" type="line"/>
      <point x="355" y="593" type="line"/>
      <point x="365" y="640" type="line"/>
      <point x="85" y="640" type="line"/>
    </contour>
    <component base="l"/>
  </outline>
</glyph>
<glyph name="uniA756" format="2">
  <advance width="742"/>
  <unicode hex="A756"/>
  <anchor x="266" y="-226" name="bottom"/>
  <anchor x="466" y="714" name="top"/>
  <anchor x="817" y="714" name="topright"/>
  <outline>
    <contour>
      <point x="200" y="-203" type="line"/>
      <point x="514" y="-88" type="line"/>
      <point x="499" y="-46" type="line"/>
      <point x="186" y="-160" type="line"/>
    </contour>
    <component base="Q"/>
  </outline>
</glyph>
<glyph name="uniA765" format="2">
  <advance width="562"/>
  <unicode hex="A765"/>
  <anchor x="173" y="-240" name="bottom"/>
  <anchor x="386" y="760" name="top"/>
  <outline>
    <contour>
      <point x="63" y="593" type="line"/>
      <point x="377" y="593" type="line"/>
      <point x="387" y="640" type="line"/>
      <point x="73" y="640" type="line"/>
    </contour>
    <component base="thorn"/>
  </outline>
</glyph>
<glyph name="uniA795" format="2">
  <advance width="635"/>
  <unicode hex="A795"/>
  <anchor x="243" y="0" name="bottom"/>
  <anchor x="405" y="760" name="top"/>
  <anchor x="357" y="268" name="center"/>
  <anchor x="684" y="760" name="topright"/>
  <outline>
    <contour>
      <point x="437" y="-197" type="curve" smooth="yes"/>
      <point x="512" y="-197"/>
      <point x="545" y="-148"/>
      <point x="563" y="-55" type="curve" smooth="yes"/>
      <point x="582" y="47" type="line"/>
      <point x="564" y="76" type="line"/>
      <point x="518" y="3" type="line"/>
      <point x="508" y="-49" type="line" smooth="yes"/>
      <point x="497" y="-104"/>
      <point x="473" y="-121"/>
      <point x="437" y="-121" type="curve" smooth="yes"/>
      <point x="416" y="-121"/>
      <point x="401" y="-114"/>
      <point x="388" y="-103" type="curve"/>
      <point x="373" y="-115"/>
      <point x="366" y="-130"/>
      <point x="366" y="-149" type="curve" smooth="yes"/>
      <point x="366" y="-178"/>
      <point x="393" y="-197"/>
    </contour>
    <component base="h"/>
  </outline>
</glyph>
<glyph name="uniA7A1" format="2">
  <advance width="556"/>
  <unicode hex="A7A1"/>
  <anchor x="170" y="-240" name="bottom"/>
  <anchor x="335" y="536" name="top"/>
  <anchor x="593" y="536" name="topright"/>
  <outline>
    <contour>
      <point x="21" y="290" type="line"/>
      <point x="569" y="391" type="line"/>
      <point x="579" y="433" type="line"/>
      <point x="31" y="332" type="line"/>
    </contour>
    <component base="g"/>
  </outline>
</glyph>
<glyph name="uniA7A8" format="2">
  <advance width="544"/>
  <unicode hex="A7A8"/>
  <anchor x="215" y="0" name="bottom"/>
  <anchor x="367" y="714" name="top"/>
  <anchor x="619" y="714" name="topright"/>
  <outline>
    <contour>
      <point x="56" y="296" type="line"/>
      <point x="532" y="394" type="line"/>
      <point x="542" y="444" type="line"/>
      <point x="66" y="346" type="line"/>
    </contour>
    <component base="S"/>
  </outline>
</glyph>
<glyph name="uniA7FF" format="2">
  <advance width="1049"/>
  <unicode hex="A7FF"/>
  <outline>
    <contour>
      <point x="112" y="-9" type="curve" smooth="yes"/>
      <point x="144" y="-9"/>
      <point x="180" y="16"/>
      <point x="180" y="71" type="curve"/>
      <point x="143" y="71"/>
      <point x="118" y="101"/>
      <point x="118" y="147" type="curve" smooth="yes"/>
      <point x="118" y="228"/>
      <point x="208" y="376"/>
      <point x="305" y="469" type="curve"/>
      <point x="308" y="469" type="line"/>
      <point x="363" y="-9" type="line"/>
      <point x="453" y="3" type="line"/>
      <point x="482" y="54"/>
      <point x="644" y="367"/>
      <point x="664" y="423" type="curve"/>
      <point x="666" y="344"/>
      <point x="678" y="114"/>
      <point x="679" y="-9" type="curve"/>
      <point x="778" y="2" type="line"/>
      <point x="927" y="203"/>
      <point x="1029" y="352"/>
      <point x="1029" y="471" type="curve" smooth="yes"/>
      <point x="1029" y="522"/>
      <point x="1009" y="546"/>
      <point x="976" y="546" type="curve" smooth="yes"/>
      <point x="943" y="546"/>
      <point x="921" y="519"/>
      <point x="917" y="487" type="curve"/>
      <point x="944" y="478"/>
      <point x="960" y="460"/>
      <point x="960" y="427" type="curve" smooth="yes"/>
      <point x="960" y="340"/>
      <point x="862" y="184"/>
      <point x="772" y="74" type="curve"/>
      <point x="765" y="74" type="line"/>
      <point x="765" y="157"/>
      <point x="753" y="431"/>
      <point x="744" y="531" type="curve"/>
      <point x="661" y="527" type="line"/>
      <point x="599" y="379"/>
      <point x="502" y="189"/>
      <point x="439" y="80" type="curve"/>
      <point x="435" y="80" type="line"/>
      <point x="383" y="541" type="line"/>
      <point x="293" y="531" type="line"/>
      <point x="202" y="440"/>
      <point x="44" y="241"/>
      <point x="44" y="84" type="curve" smooth="yes"/>
      <point x="44" y="18"/>
      <point x="70" y="-9"/>
    </contour>
  </outline>
</glyph>
<glyph name="uniAB41" format="2">
  <advance width="878"/>
  <unicode hex="AB41"/>
  <anchor x="499" y="536" name="bottom"/>
  <anchor x="385" y="0" name="top"/>
  <outline>
    <contour>
      <point x="341" y="-40" type="line"/>
      <point x="400" y="-40" type="line"/>
      <point x="834" y="576" type="line"/>
      <point x="776" y="576" type="line"/>
    </contour>
    <component base="oe" xScale="-1" yScale="-1" xOffset="874" yOffset="536"/>
  </outline>
</glyph>
<glyph name="uniFE22" format="2">
  <unicode hex="FE22"/>
  <anchor x="61" y="536" name="_top"/>
  <outline>
    <contour>
      <point x="-311" y="595" type="curve"/>
      <point x="-266" y="595" type="line"/>
      <point x="-248" y="642"/>
      <point x="-216" y="666"/>
      <point x="-130" y="666" type="curve" smooth="yes"/>
      <point x="-61" y="666"/>
      <point x="-15" y="654"/>
      <point x="80" y="626" type="curve"/>
      <point x="80" y="690" type="line"/>
      <point x="20" y="708"/>
      <point x="-39" y="726"/>
      <point x="-120" y="726" type="curve" smooth="yes"/>
      <point x="-236" y="726"/>
      <point x="-294" y="669"/>
    </contour>
  </outline>
</glyph>
